inDegrees=no
num_controls=7
num_derivatives=13
num_iterations=84
num_multipliers=7
num_parameters=0
num_slacks=7
num_states=26
objective=0.333891
objective_accelerations=0.036819
objective_balance=0.001322
objective_effort=0.027122
objective_height=0.267154
objective_ligament=0.001473
solver_duration=871.839322
status=Solve_Succeeded
success=true
DataType=double
version=3
OpenSimVersion=4.5
endheader
time	/jointset/ground_pelvis/pelvis_tilt/value	/jointset/ground_pelvis/pelvis_tx/value	/jointset/ground_pelvis/pelvis_ty/value	/jointset/hip_r/hip_flexion_r/value	/jointset/hip_r/hip_adduction_r/value	/jointset/hip_r/hip_rotation_r/value	/jointset/back/lumbar_extension/value	/jointset/patellofemoral_r/patellar_flexion_r/value	/jointset/knee_r/knee_flexion_r/value	/jointset/knee_r/knee_adduction_r/value	/jointset/knee_r/knee_rotation_r/value	/jointset/ankle_r/ankle_angle_r/value	/jointset/subtalar_r/subtalar_angle_r/value	/jointset/ground_pelvis/pelvis_tilt/speed	/jointset/ground_pelvis/pelvis_tx/speed	/jointset/ground_pelvis/pelvis_ty/speed	/jointset/hip_r/hip_flexion_r/speed	/jointset/hip_r/hip_adduction_r/speed	/jointset/hip_r/hip_rotation_r/speed	/jointset/back/lumbar_extension/speed	/jointset/patellofemoral_r/patellar_flexion_r/speed	/jointset/knee_r/knee_flexion_r/speed	/jointset/knee_r/knee_adduction_r/speed	/jointset/knee_r/knee_rotation_r/speed	/jointset/ankle_r/ankle_angle_r/speed	/jointset/subtalar_r/subtalar_angle_r/speed	/forceset/tau_hip_flexion_r	/forceset/tau_hip_adduction_r	/forceset/tau_hip_rotation_r	/forceset/tau_knee_flexion_r	/forceset/tau_ankle_angle_r	/forceset/tau_subtalar_angle_r	/forceset/tau_lumbar_extension	lambda_cid13_p0	lambda_cid14_p0	lambda_cid14_p1	lambda_cid14_p2	lambda_cid14_p3	lambda_cid14_p4	lambda_cid14_p5	/jointset/ground_pelvis/pelvis_tilt/accel	/jointset/ground_pelvis/pelvis_tx/accel	/jointset/ground_pelvis/pelvis_ty/accel	/jointset/hip_r/hip_flexion_r/accel	/jointset/hip_r/hip_adduction_r/accel	/jointset/hip_r/hip_rotation_r/accel	/jointset/back/lumbar_extension/accel	/jointset/patellofemoral_r/patellar_flexion_r/accel	/jointset/knee_r/knee_flexion_r/accel	/jointset/knee_r/knee_adduction_r/accel	/jointset/knee_r/knee_rotation_r/accel	/jointset/ankle_r/ankle_angle_r/accel	/jointset/subtalar_r/subtalar_angle_r/accel	gamma_cid13_p0	gamma_cid14_p0	gamma_cid14_p1	gamma_cid14_p2	gamma_cid14_p3	gamma_cid14_p4	gamma_cid14_p5
0.5	-0.17017650457985	0.02927506379698822	0.8051340887502222	0.9190515468955666	-0.2235275813387295	-0.1242239105652976	-0.6475460093223213	0.951939458920849	0.9519394589208201	-0.04760211812725046	0.1745150260085601	0.2948544904672171	0.1377575340681471	-0.4352833704443572	-0.2058940902025428	-0.5065072073361654	1.944307018486698	-0.007705507519255299	0.1683445431517782	-0.7381028329596498	1.925252899083489	1.925252899083327	-0.4728977358687561	-2.665403018011404e-05	0.5295680618452959	0.1974077408934159	-0.21364173424807	0.02699560826850616	0.01496054414606588	-0.2666995781590826	-0.01667224057988194	-0.005942777013099194	0.2487346521056553	-8.584998670585023	-48.12298610269828	-10.2721902578771	1.220347201501017	-2.981526048564717	-639.8599881726535	49.50500397876672	0.3632084936340419	0.5934166395117065	-0.4315714589834672	-1.309959659382881	-0.2633841198517604	-0.6399219365571229	1.821908326435256	-1.350798446865388	-1.350798446865383	0.4646540958145024	-0.0122088736286179	-0.5759501980310278	-0.4224269058191741	-1.415156694193328e-07	-1.531371811794071e-07	4.838585175063808e-07	-1.620517122175148e-06	4.564528222503482e-08	-2.794614493980351e-07	3.834553421754035e-07
0.51	-0.1745102001748085	0.02724599097198643	0.8000486230493254	0.9384260175793379	-0.2236185635384965	-0.1225712090590561	-0.6548354511456997	0.9711217832082555	0.9711217832083092	-0.05230493177785051	0.174514861381714	0.3001202548014826	0.1397086764751185	-0.4313852518122938	-0.1999029559453291	-0.510471720187807	1.930327210721312	-0.01047934229516907	0.1622035762495675	-0.7197020552655843	1.910953788651571	1.910953788651513	-0.4676329752612223	6.144859535666574e-07	0.5235077280662708	0.1927879554852289	-0.2205556360861822	0.02825215699031763	0.0149719285097343	-0.271128655380343	-0.01794414968377713	-0.005497894756307673	0.2550066364994122	-7.634857854194719	-48.85231729261868	-10.39444549113166	1.454313349366089	-2.933622036455658	-644.9579010320643	49.57790823966008	0.4136729650426655	0.6045985197270494	-0.3618147340597608	-1.480998199123628	-0.2828506333775622	-0.6002670055141065	1.861683958463814	-1.508163865913867	-1.508163865898216	0.5622549805411461	0.01092280274847243	-0.6326589299561958	-0.4867869034146826	-1.504573360008109e-07	-1.731892873480959e-07	3.79821955347528e-07	-1.81151538641975e-06	6.632831146082838e-08	-2.812839051504433e-07	2.733190951525578e-07
0.52	-0.1788028027000368	0.02527735682973703	0.794926927512751	0.9576528888126525	-0.2237369775814065	-0.12097973380953	-0.6619383808986236	0.9901533770864316	0.9901533770865691	-0.05695412423491329	0.1745151150577272	0.3053230990055347	0.1416126145189887	-0.427064756498224	-0.1938063536520651	-0.5137531744716642	1.914787128395645	-0.01319187614773428	0.1560992918089139	-0.7008004188686571	1.895106817237299	1.895106817237345	-0.4621734971609541	5.700654265141855e-05	0.5169840358025279	0.1879668682731928	-0.2274695379243007	0.02950870571212101	0.01498331287341317	-0.2755577326016029	-0.01921605878767443	-0.005053012499529785	0.2612786208931637	-6.743166640271882	-49.5784894298382	-10.51125965351913	1.681828322634888	-2.92126727726353	-650.0186226611949	49.71201771622724	0.4476838300352895	0.6145102467217776	-0.2949597454266232	-1.622014571438962	-0.2511239351820502	-0.6325854442456776	1.92208006700757	-1.660370643336154	-1.660370643336079	0.5035975943613973	-0.006384165515775414	-0.6686218949745292	-0.4626872665890108	-1.621157606373092e-07	-2.093529551912841e-07	1.343030648786152e-07	-2.172725460398851e-06	1.107032525907649e-07	-2.895944654495372e-07	6.405452269160403e-08
0.53	-0.1830501035486692	0.02337013693378774	0.7897758637360434	0.9767166685294559	-0.2238824178520664	-0.1194474482640167	-0.6688498915340003	1.009019095672727	1.009019095672646	-0.06154603164754613	0.1745155610470934	0.3104583767889975	0.1434669272055439	-0.4223236854680447	-0.1876278113564246	-0.5163416677910396	1.897714374287299	-0.01588757817381495	0.15041013302192	-0.6814304647192458	1.877794084340124	1.877794084340142	-0.456129446000286	3.011458285316409e-05	0.5099965904151639	0.1828554488650452	-0.2344050734519093	0.03073973592678433	0.01505389172094371	-0.2799567328218014	-0.02079453310492476	-0.004723435613983432	0.2675118921617738	-5.910628701866484	-50.42634895843536	-10.7035330207848	1.926029348859662	-2.734351396702585	-655.2077786824706	49.73014208640907	0.4980528872512441	0.6210251504904934	-0.2231659552850173	-1.788104102040964	-0.2778422062812637	-0.5295421429616334	1.955139612031211	-1.803113317264673	-1.80311331726897	0.6665992736604698	-0.001617507978225965	-0.7250547825589772	-0.5416816761397397	-1.438755208020324e-07	-1.646748934371543e-07	3.195398196007382e-07	-1.759661501923591e-06	6.249400958421925e-08	-2.479104731503511e-07	1.954951388945094e-07
0.54	-0.1872478468574519	0.02152500224669602	0.7846024406601235	0.9956020810508727	-0.2240546249169791	-0.117970546515784	-0.6755655653232587	1.027704409189177	1.027704409188884	-0.06607514046922765	0.174515582957501	0.3155215303341989	0.1452688632183751	-0.4171532485281854	-0.1813893118805546	-0.5182250343141019	1.879113689318613	-0.01854523499829684	0.1450225323535085	-0.6616330496449042	1.859025803268686	1.859025803268676	-0.4496137789699771	-2.780924760089379e-05	0.5025591881501342	0.1774915335284129	-0.2413406089795254	0.03197076614143214	0.01512447056854875	-0.2843557330419917	-0.0223730074221787	-0.004393858728463079	0.2737451634303776	-5.137374499224118	-51.27101251631966	-10.88869091568392	2.161606915851069	-2.587358248947618	-660.3615071186646	49.82694269447811	0.5335570119712626	0.626501682767698	-0.1539343861640032	-1.927600743506939	-0.2435148948622858	-0.5722738205291852	2.00757225199365	-1.951480278188929	-1.951480278188929	0.5979207682895639	-0.0125905396469389	-0.7586132705076403	-0.5131864522859368	-9.255590750862098e-08	-3.055491808599075e-08	9.813572881512472e-07	-4.899539330732832e-07	-8.814879884992497e-08	-1.509133588275355e-07	7.038861765978589e-07
0.55	-0.1913918794408954	0.01974247473315283	0.7794137106356545	1.014294155800906	-0.2242525734142768	-0.1165496670157816	-0.682081186310227	1.046194521249723	1.046194521249712	-0.07054083766285625	0.1745160876619629	0.3205082944409551	0.1470170468220639	-0.411585383517621	-0.1751124705389276	-0.5194013542287871	1.859056657677772	-0.02103569076545528	0.1392267688863723	-0.6414367125906907	1.838767300799192	1.838767300799138	-0.4434325292836394	0.0001119474507906164	0.4947244586958607	0.1721065321910169	-0.2480958321864446	0.03308931812801358	0.0152702634016785	-0.2889026871403471	-0.02393497007090039	-0.004190210434204928	0.2797758842127167	-4.423190798157633	-52.12590738897084	-11.1363399374345	2.414010400451789	-2.35332844660781	-665.5262689344665	49.86450565852652	0.5785898186609046	0.6287993397470688	-0.08155794264587572	-2.081438534805456	-0.2503998624748395	-0.5723062051803605	2.033829705843759	-2.097418525109412	-2.097418525115878	0.642370993957279	0.02482334931562515	-0.8063227940775216	-0.5567204176422572	-5.813864150974403e-08	5.216644120429722e-08	1.340180315655178e-06	2.737115076740511e-07	-1.762318574998514e-07	-8.915936954754817e-08	9.961754335239625e-07
0.5600000000000001	-0.1954781956596209	0.01802282042900337	0.7742168019823334	1.032778323402443	-0.2244751442582109	-0.1151845608695287	-0.6883932108719116	1.064475171626835	1.064475171627078	-0.074941893574597	0.1745175028483458	0.3254146272509309	0.1487102677237435	-0.4056099755845819	-0.1688146700018109	-0.5198607600844827	1.837532259619619	-0.02346970432590119	0.1338678616042548	-0.6209137645881371	1.817133466578506	1.817133466578409	-0.4366855225912456	0.0001542871385187396	0.4864729287939742	0.166498993126588	-0.2548510553933711	0.03420787011458983	0.0154160562348267	-0.2934496412387019	-0.02549693271962437	-0.003986562139960364	0.2858066049950495	-3.767649145836149	-52.97961105124935	-11.37781196014985	2.65861338576469	-2.146331099000339	-670.6855738855756	49.92645931539847	0.6150655964661922	0.630693521865629	-0.0105515743660835	-2.221074026969512	-0.232226453519777	-0.4849025835254526	2.072894441661667	-2.226546628427406	-2.226546628427457	0.7110721695007781	-0.03207394177963994	-0.8419733600302082	-0.5576939976924981	-4.40041922643078e-08	7.320946122153649e-08	1.335410013903227e-06	4.30126394697838e-07	-1.89243216408719e-07	-6.969713031895342e-08	1.029142553517379e-06
